<?xml version="1.0" encoding="utf-8"?>
<svg version="1.1" xmlns:xlink="http://www.w3.org/1999/xlink" width="11px" height="13px" xmlns="http://www.w3.org/2000/svg">
  <g transform="matrix(1 0 0 1 -763 -426 )">
    <path d="M 10.926953125 9.398763020833332  C 10.975651041666667 9.824761284722221  11 10.27756076388889  11 10.757161458333334  C 11 11.372178819444445  10.820963541666668 11.899739583333334  10.462890625 12.33984375  C 10.104817708333334 12.779947916666666  9.673697916666667 13  9.16953125 13  L 1.83046875 13  C 1.3263020833333334 13  0.8951822916666667 12.779947916666666  0.5371093750000001 12.33984375  C 0.17903645833333337 11.899739583333334  0 11.372178819444445  0 10.757161458333334  C 0 10.27756076388889  0.02434895833333339 9.824761284722221  0.07304687500000007 9.398763020833332  C 0.12174479166666673 8.972764756944443  0.21197916666666672 8.5439453125  0.34375000000000006 8.1123046875  C 0.4755208333333335 7.6806640625  0.6430989583333334 7.311089409722222  0.846484375 7.003580729166668  C 1.0498697916666668 6.69607204861111  1.319140625 6.444986979166666  1.654296875 6.250325520833334  C 1.9894531249999998 6.0556640625  2.3747395833333336 5.958333333333334  2.8101562500000004 5.958333333333334  C 3.5606770833333337 6.680555555555555  4.457291666666667 7.041666666666668  5.5 7.041666666666668  C 6.542708333333335 7.041666666666668  7.439322916666668 6.680555555555555  8.18984375 5.958333333333334  C 8.625260416666666 5.958333333333334  9.010546875 6.0556640625  9.345703125 6.250325520833334  C 9.680859375 6.444986979166666  9.950130208333334 6.69607204861111  10.153515625 7.003580729166668  C 10.356901041666667 7.311089409722222  10.524479166666667 7.6806640625  10.65625 8.1123046875  C 10.788020833333334 8.5439453125  10.878255208333334 8.972764756944443  10.926953125 9.398763020833332  Z M 7.833203125000001 0.9521484375  C 8.477734375 1.5869140625  8.8 2.352864583333334  8.8 3.25  C 8.8 4.147135416666666  8.477734375 4.9130859375  7.833203125000001 5.5478515625  C 7.188671875000001 6.1826171875  6.410937499999999 6.5  5.5 6.5  C 4.5890625 6.5  3.811328125 6.1826171875  3.166796875 5.5478515625  C 2.522265625 4.9130859375  2.2 4.147135416666666  2.2 3.25  C 2.2 2.352864583333334  2.522265625 1.5869140625  3.166796875 0.9521484375  C 3.811328125 0.3173828125  4.5890625 0  5.5 0  C 6.410937499999999 0  7.188671875000001 0.3173828125  7.833203125000001 0.9521484375  Z " fill-rule="nonzero" fill="#000000" stroke="none" transform="matrix(1 0 0 1 763 426 )" />
  </g>
</svg>